<svg xmlns="http://www.w3.org/2000/svg" viewBox="0 0 64 64">
  <defs>
    <linearGradient id="grad" x1="0" x2="0" y1="0" y2="1">
      <stop offset="0" stop-color="#0ea5e9" />
      <stop offset="1" stop-color="#22c55e" />
    </linearGradient>
  </defs>
  <rect width="64" height="64" rx="12" fill="url(#grad)" />
  <path d="M19 40c0-7.2 5.2-13 11.6-13 4.1 0 7.8 2.2 9.8 5.7l4.4-2.5C42 24.7 36.4 21 30.6 21 20.6 21 12 29.9 12 40s8.6 19 18.6 19c5.8 0 11.4-3.7 14.2-9.2l-4.4-2.5c-2 3.5-5.7 5.7-9.8 5.7C24.2 53 19 47.2 19 40z" fill="#f0fdf4" />
  <path d="M34.5 17.5c2.2 0 4-1.8 4-4s-1.8-4-4-4-4 1.8-4 4 1.8 4 4 4z" fill="#f8fafc" />
</svg>
